<svg version="1.1" id="Layer_1" xmlns="http://www.w3.org/2000/svg" xmlns:xlink="http://www.w3.org/1999/xlink" x="0px" y="0px"
	 width="100%" viewBox="0 0 170 171" enable-background="new 0 0 170 171" xml:space="preserve">
<path fill="#5889EA" opacity="1.000000" stroke="none" 
	d="
M92.000000,1.000000 
	C94.370560,1.000000 96.741112,1.000000 99.865372,1.192536 
	C101.809471,1.606863 102.999878,1.828655 104.259750,2.415829 
	C108.314934,3.888057 112.503319,4.542642 116.235512,6.215188 
	C120.997231,8.349109 125.167557,11.868461 129.993393,13.778425 
	C137.685333,16.822729 142.592331,23.008196 148.064743,28.501394 
	C153.604721,34.062443 158.375763,40.122955 161.695358,47.608734 
	C164.196487,53.248852 167.480804,58.374126 168.140564,64.746330 
	C168.364197,66.906418 170.006180,68.919655 171.000000,71.000000 
	C171.000000,81.020897 171.000000,91.041786 170.601837,101.666122 
	C169.818451,102.644714 169.139786,102.985237 169.090820,103.400085 
	C167.791672,114.407433 164.964111,124.807014 157.309525,133.293365 
	C150.891479,140.408844 145.087952,148.273926 137.806396,154.365616 
	C128.777267,161.919312 118.638382,168.180832 106.206848,169.169479 
	C104.076340,169.338913 102.065903,171.018204 100.000000,172.000000 
	C96.969406,172.000000 93.938812,172.000000 90.129974,171.772583 
	C86.893440,171.370255 84.435165,171.195343 81.649612,171.017792 
	C80.548233,171.343430 79.774117,171.671707 79.000000,172.000000 
	C76.629440,172.000000 74.258888,172.000000 71.561714,171.902145 
	C71.235100,171.804291 71.068703,171.547607 71.490662,171.510315 
	C70.244186,171.325516 68.575760,171.177979 66.953194,171.041473 
	C66.999062,171.052490 67.028282,170.962784 66.683701,170.800598 
	C60.899570,168.612137 55.304573,166.921768 50.052090,164.491241 
	C38.303909,159.054855 28.536844,150.909271 20.051430,141.211838 
	C17.329990,138.101685 14.070392,135.148132 12.388141,131.507797 
	C8.791465,123.724731 6.092521,115.528687 2.927818,107.540642 
	C2.664785,106.876717 1.660101,106.506615 1.000000,106.000000 
	C1.000000,101.975456 1.000000,97.950912 1.274140,93.154213 
	C1.365520,88.254707 1.182760,84.127350 1.000000,80.000000 
	C1.000000,77.299988 1.000000,74.599968 1.216505,71.251213 
	C2.011897,69.406929 2.590784,68.211395 3.095673,66.621658 
	C6.499394,58.143139 9.413461,49.747894 13.643930,42.078804 
	C16.696947,36.544231 21.513529,31.985558 25.521702,26.974154 
	C33.780838,16.647785 45.105129,10.939319 56.930317,5.907132 
	C60.079357,4.567064 62.983448,2.651397 66.000000,1.000000 
	C66.000000,1.000000 66.500000,1.000000 66.832367,1.262563 
	C67.502693,1.980528 67.840668,2.435930 68.178635,2.891331 
	C68.452423,2.260887 68.726212,1.630443 69.000000,1.000000 
	C72.361290,1.000000 75.722572,1.000000 79.748375,1.254063 
	C81.255440,1.630331 82.097992,1.752536 83.376472,1.908780 
	C85.560493,1.918829 87.308578,1.894839 89.379700,1.904463 
	C90.468483,1.625385 91.234245,1.312693 92.000000,1.000000 
M72.018600,92.474472 
	C66.262123,97.907433 60.202396,103.061470 54.857204,108.872734 
	C51.372078,112.661758 48.822868,117.342781 46.096237,121.773048 
	C45.524925,122.701324 46.013191,124.281731 46.013191,125.889671 
	C47.893791,125.554520 49.380737,125.179161 50.889549,125.038658 
	C60.229286,124.168938 64.960892,116.194443 71.043427,110.957428 
	C83.105865,100.571747 93.847733,88.652176 105.134155,77.365326 
	C114.419273,68.079857 114.418480,68.079063 104.105255,58.917595 
	C93.591507,69.927483 83.064720,80.951019 72.018600,92.474472 
M124.023079,56.460182 
	C127.673149,54.081921 127.576469,51.080341 125.304192,47.878403 
	C124.039703,46.096569 116.244110,46.349197 114.367851,48.158539 
	C112.950768,49.525093 111.692528,51.015915 112.457779,53.220337 
	C114.438118,58.925079 120.003395,60.838577 124.023079,56.460182 
z"/>
<path fill="#000000" opacity="1.000000" stroke="none" 
	d="
M171.000000,70.531342 
	C170.006180,68.919655 168.364197,66.906418 168.140564,64.746330 
	C167.480804,58.374126 164.196487,53.248852 161.695358,47.608734 
	C158.375763,40.122955 153.604721,34.062443 148.064743,28.501394 
	C142.592331,23.008196 137.685333,16.822729 129.993393,13.778425 
	C125.167557,11.868461 120.997231,8.349109 116.235512,6.215188 
	C112.503319,4.542642 108.314934,3.888057 104.499573,2.338445 
	C104.779945,1.597118 104.889969,1.298559 105.000000,1.000000 
	C126.928993,1.000000 148.857986,1.000000 171.000000,1.000000 
	C171.000000,24.020456 171.000000,47.041569 171.000000,70.531342 
z"/>
<path fill="#000000" opacity="1.000000" stroke="none" 
	d="
M65.531342,1.000000 
	C62.983448,2.651397 60.079357,4.567064 56.930317,5.907132 
	C45.105129,10.939319 33.780838,16.647785 25.521702,26.974154 
	C21.513529,31.985558 16.696947,36.544231 13.643930,42.078804 
	C9.413461,49.747894 6.499394,58.143139 2.977458,66.885948 
	C2.288828,67.362953 1.644414,67.181480 1.000000,67.000000 
	C1.000000,45.073723 1.000000,23.147442 1.000000,1.000000 
	C22.353720,1.000000 43.708202,1.000000 65.531342,1.000000 
z"/>
<path fill="#000000" opacity="1.000000" stroke="none" 
	d="
M100.468658,172.000000 
	C102.065903,171.018204 104.076340,169.338913 106.206848,169.169479 
	C118.638382,168.180832 128.777267,161.919312 137.806396,154.365616 
	C145.087952,148.273926 150.891479,140.408844 157.309525,133.293365 
	C164.964111,124.807014 167.791672,114.407433 169.090820,103.400085 
	C169.139786,102.985237 169.818451,102.644714 170.601837,102.134781 
	C171.000000,125.260704 171.000000,148.521408 171.000000,172.000000 
	C147.646225,172.000000 124.291771,172.000000 100.468658,172.000000 
z"/>
<path fill="#000000" opacity="1.000000" stroke="none" 
	d="
M1.000000,106.468658 
	C1.660101,106.506615 2.664785,106.876717 2.927818,107.540642 
	C6.092521,115.528687 8.791465,123.724731 12.388141,131.507797 
	C14.070392,135.148132 17.329990,138.101685 20.051430,141.211838 
	C28.536844,150.909271 38.303909,159.054855 50.052090,164.491241 
	C55.304573,166.921768 60.899570,168.612137 66.694977,171.060211 
	C67.033897,171.654663 67.016953,171.827332 67.000000,172.000000 
	C45.073158,172.000000 23.146315,172.000000 1.000000,172.000000 
	C1.000000,150.312927 1.000000,128.625122 1.000000,106.468658 
z"/>
<path fill="#80A8F0" opacity="1.000000" stroke="none" 
	d="
M1.000000,80.463181 
	C1.182760,84.127350 1.365520,88.254707 1.274140,92.691025 
	C1.000000,88.975456 1.000000,84.950912 1.000000,80.463181 
z"/>
<path fill="#6F99EF" opacity="1.000000" stroke="none" 
	d="
M81.976883,171.020447 
	C84.435165,171.195343 86.893440,171.370255 89.675858,171.772583 
	C87.629440,172.000000 85.258888,172.000000 82.443985,171.754974 
	C81.999649,171.509964 81.976883,171.020447 81.976883,171.020447 
z"/>
<path fill="#6F99EF" opacity="1.000000" stroke="none" 
	d="
M1.000000,67.399994 
	C1.644414,67.181480 2.288828,67.362953 3.051457,67.280144 
	C2.590784,68.211395 2.011897,69.406929 1.216505,70.801239 
	C1.000000,69.933327 1.000000,68.866661 1.000000,67.399994 
z"/>
<path fill="#8EADF5" opacity="1.000000" stroke="none" 
	d="
M89.056671,1.870849 
	C87.308578,1.894839 85.560493,1.918829 83.393646,1.690543 
	C82.974892,1.438267 83.000000,1.000000 83.000000,1.000000 
	C84.714378,1.000000 86.428749,1.000000 88.583817,1.217837 
	C89.024498,1.435674 89.056671,1.870849 89.056671,1.870849 
z"/>
<path fill="#4D77EE" opacity="1.000000" stroke="none" 
	d="
M104.583336,1.000000 
	C104.889969,1.298559 104.779945,1.597118 104.430099,1.973061 
	C102.999878,1.828655 101.809471,1.606863 100.309532,1.192536 
	C101.388893,1.000000 102.777779,1.000000 104.583336,1.000000 
z"/>
<path fill="#6F99EF" opacity="1.000000" stroke="none" 
	d="
M68.666672,1.000000 
	C68.726212,1.630443 68.452423,2.260887 68.178635,2.891331 
	C67.840668,2.435930 67.502693,1.980528 67.082367,1.262563 
	C67.444443,1.000000 67.888893,1.000000 68.666672,1.000000 
z"/>
<path fill="#5575BF" opacity="1.000000" stroke="none" 
	d="
M67.400063,172.000000 
	C67.016953,171.827332 67.033897,171.654663 67.039558,171.222382 
	C67.028282,170.962784 66.999062,171.052490 67.380127,171.024567 
	C68.863693,171.180283 69.966202,171.363953 71.068703,171.547607 
	C71.068703,171.547607 71.235100,171.804291 71.117554,171.902145 
	C69.933372,172.000000 68.866753,172.000000 67.400063,172.000000 
z"/>
<path fill="#A6C1FF" opacity="1.000000" stroke="none" 
	d="
M89.379700,1.904463 
	C89.056671,1.870849 89.024498,1.435674 89.012253,1.217837 
	C89.750000,1.000000 90.500000,1.000000 91.625000,1.000000 
	C91.234245,1.312693 90.468483,1.625385 89.379700,1.904463 
z"/>
<path fill="#A6C1FF" opacity="1.000000" stroke="none" 
	d="
M82.625000,1.000000 
	C83.000000,1.000000 82.974892,1.438267 82.957718,1.656504 
	C82.097992,1.752536 81.255440,1.630331 80.206444,1.254063 
	C80.750000,1.000000 81.500000,1.000000 82.625000,1.000000 
z"/>
<path fill="#8EADF5" opacity="1.000000" stroke="none" 
	d="
M81.649612,171.017792 
	C81.976883,171.020447 81.999649,171.509964 81.999825,171.754974 
	C81.250000,172.000000 80.500000,172.000000 79.375000,172.000000 
	C79.774117,171.671707 80.548233,171.343430 81.649612,171.017792 
z"/>
<path fill="#000000" opacity="1.000000" stroke="none" 
	d="
M72.278275,92.224518 
	C83.064720,80.951019 93.591507,69.927483 104.105255,58.917595 
	C114.418480,68.079063 114.419273,68.079857 105.134155,77.365326 
	C93.847733,88.652176 83.105865,100.571747 71.043427,110.957428 
	C64.960892,116.194443 60.229286,124.168938 50.889549,125.038658 
	C49.380737,125.179161 47.893791,125.554520 46.013191,125.889671 
	C46.013191,124.281731 45.524925,122.701324 46.096237,121.773048 
	C48.822868,117.342781 51.372078,112.661758 54.857204,108.872734 
	C60.202396,103.061470 66.262123,97.907433 72.278275,92.224518 
z"/>
<path fill="#000000" opacity="1.000000" stroke="none" 
	d="
M123.744926,56.737331 
	C120.003395,60.838577 114.438118,58.925079 112.457779,53.220337 
	C111.692528,51.015915 112.950768,49.525093 114.367851,48.158539 
	C116.244110,46.349197 124.039703,46.096569 125.304192,47.878403 
	C127.576469,51.080341 127.673149,54.081921 123.744926,56.737331 
z"/>
<path fill="#000000" opacity="1.000000" stroke="none" 
	d="
M71.490662,171.510315 
	C69.966202,171.363953 68.863693,171.180283 67.334259,171.013550 
	C68.575760,171.177979 70.244186,171.325516 71.490662,171.510315 
z"/>
</svg>